<mxfile host="app.diagrams.net" modified="2023-11-03T08:01:40.965Z" agent="Mozilla/5.0 (Windows NT 10.0; Win64; x64) AppleWebKit/537.36 (KHTML, like Gecko) Chrome/117.0.0.0 Safari/537.36" etag="gr9Hgx3RYbNxXr-WC4KT" version="22.0.8" type="github">
  <diagram name="第 1 页" id="2d4IaS85EiArA_1HP9dB">
    <mxGraphModel dx="1434" dy="841" grid="1" gridSize="10" guides="1" tooltips="1" connect="1" arrows="1" fold="1" page="1" pageScale="1" pageWidth="827" pageHeight="1169" math="0" shadow="0">
      <root>
        <mxCell id="0" />
        <mxCell id="1" parent="0" />
        <mxCell id="hr0acIL_BR-KHDA05sQp-8" style="edgeStyle=orthogonalEdgeStyle;rounded=0;orthogonalLoop=1;jettySize=auto;html=1;entryX=0.5;entryY=0;entryDx=0;entryDy=0;" edge="1" parent="1" source="hr0acIL_BR-KHDA05sQp-1" target="hr0acIL_BR-KHDA05sQp-5">
          <mxGeometry relative="1" as="geometry" />
        </mxCell>
        <mxCell id="hr0acIL_BR-KHDA05sQp-1" value="管理端编辑绑定合约代码" style="rounded=1;whiteSpace=wrap;html=1;" vertex="1" parent="1">
          <mxGeometry x="330" y="140" width="120" height="60" as="geometry" />
        </mxCell>
        <mxCell id="hr0acIL_BR-KHDA05sQp-4" style="edgeStyle=orthogonalEdgeStyle;rounded=0;orthogonalLoop=1;jettySize=auto;html=1;entryX=1;entryY=0.5;entryDx=0;entryDy=0;dashed=1;" edge="1" parent="1" source="hr0acIL_BR-KHDA05sQp-3" target="hr0acIL_BR-KHDA05sQp-1">
          <mxGeometry relative="1" as="geometry" />
        </mxCell>
        <mxCell id="hr0acIL_BR-KHDA05sQp-3" value="通过雷工接口获取合约列表" style="rounded=1;whiteSpace=wrap;html=1;" vertex="1" parent="1">
          <mxGeometry x="600" y="140" width="120" height="60" as="geometry" />
        </mxCell>
        <mxCell id="hr0acIL_BR-KHDA05sQp-10" style="edgeStyle=orthogonalEdgeStyle;rounded=0;orthogonalLoop=1;jettySize=auto;html=1;entryX=0.5;entryY=0;entryDx=0;entryDy=0;" edge="1" parent="1" source="hr0acIL_BR-KHDA05sQp-5" target="hr0acIL_BR-KHDA05sQp-9">
          <mxGeometry relative="1" as="geometry" />
        </mxCell>
        <mxCell id="hr0acIL_BR-KHDA05sQp-5" value="APP端获取后台绑定的合约代码" style="rounded=1;whiteSpace=wrap;html=1;" vertex="1" parent="1">
          <mxGeometry x="330" y="280" width="120" height="60" as="geometry" />
        </mxCell>
        <mxCell id="hr0acIL_BR-KHDA05sQp-7" style="edgeStyle=orthogonalEdgeStyle;rounded=0;orthogonalLoop=1;jettySize=auto;html=1;entryX=1;entryY=0.5;entryDx=0;entryDy=0;dashed=1;" edge="1" parent="1" source="hr0acIL_BR-KHDA05sQp-6" target="hr0acIL_BR-KHDA05sQp-5">
          <mxGeometry relative="1" as="geometry" />
        </mxCell>
        <mxCell id="hr0acIL_BR-KHDA05sQp-6" value="APP端通过js函数调用wtGetHQInfo完成代码转换&lt;br&gt;" style="rounded=1;whiteSpace=wrap;html=1;" vertex="1" parent="1">
          <mxGeometry x="600" y="280" width="120" height="60" as="geometry" />
        </mxCell>
        <mxCell id="hr0acIL_BR-KHDA05sQp-9" value="APP端使用转换后的代码拼接跳转url" style="rounded=1;whiteSpace=wrap;html=1;" vertex="1" parent="1">
          <mxGeometry x="330" y="420" width="120" height="60" as="geometry" />
        </mxCell>
        <mxCell id="hr0acIL_BR-KHDA05sQp-11" value="合约页面跳转流程" style="text;html=1;strokeColor=none;fillColor=none;align=center;verticalAlign=middle;whiteSpace=wrap;rounded=0;fontStyle=1;fontSize=16;" vertex="1" parent="1">
          <mxGeometry x="320" y="60" width="200" height="60" as="geometry" />
        </mxCell>
      </root>
    </mxGraphModel>
  </diagram>
</mxfile>
